<svg xmlns="http://www.w3.org/2000/svg" version="1.1" xmlns:xlink="http://www.w3.org/1999/xlink" xmlns:svgjs="http://svgjs.dev/svgjs" width="1500" height="537" viewBox="0 0 1500 537"><g transform="matrix(1,0,0,1,-0.9090909090909918,0.018996143408173793)"><svg viewBox="0 0 396 142" data-background-color="#ffffff" preserveAspectRatio="xMidYMid meet" height="537" width="1500" xmlns="http://www.w3.org/2000/svg" xmlns:xlink="http://www.w3.org/1999/xlink"><g id="tight-bounds" transform="matrix(1,0,0,1,0.2400000000000091,-0.005023188759707864)"><svg viewBox="0 0 395.52 142.01004637751942" height="142.01004637751942" width="395.52"><g><svg viewBox="0 0 662.7481507667276 237.95736151648012" height="142.01004637751942" width="395.52"><g transform="matrix(1,0,0,1,265.2505507667277,52.49843672194352)"><svg viewBox="0 0 397.4975999999999 132.96048807259308" height="132.96048807259308" width="397.4975999999999"><g id="textblocktransform"><svg viewBox="0 0 397.4975999999999 132.96048807259308" height="132.96048807259308" width="397.4975999999999" id="textblock"><g><rect width="397.4975999999999" height="7.486066975289986" x="0" y="91.83021227297927" fill="#28acca" opacity="1" stroke-width="0" stroke="transparent" fill-opacity="1" class="rect-yte-0" data-fill-palette-color="primary" rx="1%" id="yte-0" data-palette-color="#28acca"></rect></g><g transform="matrix(1,0,0,1,0.9887999999999693,0)"><svg viewBox="0 0 395.52 83.0115469879518" height="83.0115469879518" width="395.52"><g transform="matrix(1,0,0,1,0,0)"><svg width="395.52" viewBox="0.75 -36.6 206.24 43.550000000000004" height="83.0115469879518" data-palette-color="#28acca"><g class="wordmark-text-0" data-fill-palette-color="primary" id="text-0"><path d="M9.45 6.95L9.45 6.95Q7.2 6.95 5.2 5.95 3.2 4.95 1.98 3.2 0.75 1.45 0.75-0.75L0.75-0.75 1.35-1.05Q3.7 0.7 6.05 0.7L6.05 0.7Q7.4 0.7 8.6-0.05 9.8-0.8 10.73-2.7 11.65-4.6 12.18-7.95 12.7-11.3 12.7-16.55L12.7-16.55Q12.7-21 13.28-23.95 13.85-26.9 15.65-29.35L15.65-29.35Q15-29.8 14.13-30.18 13.25-30.55 12.3-30.55L12.3-30.55Q10.7-30.55 9.68-29.38 8.65-28.2 8.65-26.4L8.65-26.4Q8.65-25.45 8.97-24.4 9.3-23.35 10-22.3L10-22.3Q7-22.3 5.03-23.38 3.05-24.45 2.08-26.1 1.1-27.75 1.1-29.55L1.1-29.55Q1.1-31.35 1.98-32.95 2.85-34.55 4.6-35.58 6.35-36.6 8.85-36.6L8.85-36.6Q10.8-36.6 13.2-35.83 15.6-35.05 18.45-33.25L18.45-33.25Q20.2-35.3 21.6-35.8 23-36.3 23.8-36.3L23.8-36.3Q25.85-36.3 26.8-34.93 27.75-33.55 27.75-31.65L27.75-31.65Q27.75-30.4 27.28-29.2 26.8-28 25.8-27.23 24.8-26.45 23.2-26.45L23.2-26.45Q22.7-26.45 22.13-26.55 21.55-26.65 20.85-26.9L20.85-26.9Q20.5-26 20.35-24.8 20.2-23.6 20.2-22.2L20.2-22.2Q20.2-19.45 20.5-16.32 20.8-13.2 20.8-10.2L20.8-10.2Q20.8-5.5 19.8-2.23 18.8 1.05 17.15 3.08 15.5 5.1 13.5 6.03 11.5 6.95 9.45 6.95ZM39 0.35L39 0.35Q35.25 0.35 32.8-1.15 30.35-2.65 29.17-5.13 28-7.6 28-10.4L28-10.4Q28-13.05 28.97-15.7 29.95-18.35 31.82-20.53 33.7-22.7 36.4-24.03 39.1-25.35 42.6-25.35L42.6-25.35Q46.35-25.35 48.77-23.83 51.2-22.3 52.37-19.8 53.55-17.3 53.55-14.45L53.55-14.45Q53.55-11.85 52.6-9.22 51.65-6.6 49.77-4.42 47.9-2.25 45.2-0.95 42.5 0.35 39 0.35ZM40.35-3.9L40.35-3.9Q41.7-3.9 42.6-5.3 43.5-6.7 43.95-8.88 44.4-11.05 44.4-13.3L44.4-13.3Q44.4-15.3 44.02-17.07 43.65-18.85 42.9-19.98 42.15-21.1 40.95-21.1L40.95-21.1Q39.65-21.1 38.72-19.7 37.8-18.3 37.35-16.15 36.9-14 36.9-11.7L36.9-11.7Q36.9-9.7 37.27-7.93 37.65-6.15 38.4-5.03 39.15-3.9 40.35-3.9ZM69.6 0.2L69.6 0.2Q67.6 0.2 65.95-0.68 64.3-1.55 63.25-3.25L63.25-3.25Q63.2-2.3 62.55-1.5 61.9-0.7 60.1-0.7L60.1-0.7Q58.1-0.7 57.15-1.8 56.2-2.9 56.2-4.7L56.2-4.7Q56.2-5.8 56.5-7.88 56.8-9.95 57.22-12.55 57.65-15.15 58.07-17.95 58.5-20.75 58.8-23.4 59.1-26.05 59.1-28.15L59.1-28.15Q59.1-29.55 58.95-30.6 58.8-31.65 58.4-32.25L58.4-32.25 58.4-32.55Q59.55-33.8 60.8-34.43 62.05-35.05 63.2-35.05L63.2-35.05Q64.9-35.05 66.1-33.7 67.3-32.35 67.3-29.4L67.3-29.4Q67.3-27.95 67-25.33 66.7-22.7 66.25-20.1L66.25-20.1Q68.05-22.65 70.07-24 72.1-25.35 74-25.35L74-25.35Q76.55-25.35 78.35-22.93 80.15-20.5 80.15-15.6L80.15-15.6Q80.15-12.7 79.47-9.88 78.8-7.05 77.45-4.78 76.1-2.5 74.12-1.15 72.15 0.2 69.6 0.2ZM67.1-4.85L67.1-4.85Q68.7-4.85 69.82-6.25 70.95-7.65 71.52-9.83 72.1-12 72.1-14.3L72.1-14.3Q72.1-15.8 71.85-17.18 71.6-18.55 71.1-19.43 70.6-20.3 69.8-20.3L69.8-20.3Q68.4-20.3 66.62-17.03 64.85-13.75 63.85-7.75L63.85-7.75Q64.75-4.85 67.1-4.85Z" fill="#28acca" data-fill-palette-color="primary"></path><path d="M99.3 0.3L99.3 0.3Q95.95 0.3 93.77-0.85 91.6-2 90.55-3.8 89.5-5.6 89.5-7.5L89.5-7.5Q89.5-9.35 90.4-11.03 91.3-12.7 92.97-13.8 94.65-14.9 96.95-14.9L96.95-14.9Q96.9-14.45 96.9-14.08 96.9-13.7 96.9-13.7L96.9-13.7Q96.9-10.35 97.55-8.43 98.2-6.5 99.2-5.68 100.2-4.85 101.25-4.85L101.25-4.85Q102.85-4.85 104.1-6.13 105.35-7.4 105.35-9.1L105.35-9.1Q105.35-11 103.72-12.45 102.1-13.9 99.6-15.65L99.6-15.65Q98.2-16.7 96.62-18.03 95.05-19.35 93.95-21.18 92.85-23 92.85-25.5L92.85-25.5Q92.85-28.1 94.07-30.1 95.3-32.1 97.32-33.48 99.35-34.85 101.77-35.58 104.2-36.3 106.6-36.3L106.6-36.3Q109.55-36.3 111.45-35.35 113.35-34.4 114.3-32.9 115.25-31.4 115.25-29.8L115.25-29.8Q115.25-28.3 114.42-26.93 113.6-25.55 112-24.7 110.4-23.85 108.05-23.85L108.05-23.85Q108.2-24.55 108.25-25.13 108.3-25.7 108.3-26.15L108.3-26.15Q108.3-28.65 107.22-29.73 106.15-30.8 104.85-30.8L104.85-30.8Q103.6-30.8 102.45-29.88 101.3-28.95 101.3-26.9L101.3-26.9Q101.3-25.15 102.22-23.9 103.15-22.65 104.62-21.7 106.1-20.75 107.75-19.85L107.75-19.85Q109.45-18.95 111.02-17.88 112.6-16.8 113.65-15.35 114.7-13.9 114.7-11.7L114.7-11.7Q114.7-9.4 113.45-7.23 112.2-5.05 110.05-3.38 107.9-1.7 105.12-0.7 102.35 0.3 99.3 0.3ZM136 0.25L136 0.25Q134.24 0.25 132.95-0.9 131.65-2.05 131.65-4.65L131.65-4.65Q131.65-4.9 131.65-5.15 131.65-5.4 131.7-5.65L131.7-5.65Q130.2-2.65 128.32-1.23 126.45 0.2 124.55 0.2L124.55 0.2Q122.8 0.2 121.25-1.03 119.7-2.25 118.75-4.65 117.8-7.05 117.8-10.45L117.8-10.45Q117.8-13.95 118.77-16.7 119.75-19.45 121.35-21.35 122.95-23.25 124.85-24.23 126.75-25.2 128.55-25.2L128.55-25.2Q130.55-25.2 132.15-23.98 133.74-22.75 134.35-20.1L134.35-20.1Q134.49-20.95 134.57-21.65 134.65-22.35 134.65-22.6L134.65-22.6Q134.7-23.95 136.02-24.6 137.35-25.25 138.95-25.25L138.95-25.25Q140.35-25.25 141.6-24.7 142.85-24.15 143.3-22.85L143.3-22.85 143.4-22.55Q142.8-21.2 142.2-19.3 141.6-17.4 141.1-15.33 140.6-13.25 140.3-11.28 140-9.3 140-7.8L140-7.8Q140-6.15 140.35-5.53 140.7-4.9 141.2-4.9L141.2-4.9Q142.05-4.9 142.75-6.1L142.75-6.1 143.15-5.9Q143.15-4.2 142.05-2.8 140.95-1.4 139.3-0.58 137.65 0.25 136 0.25ZM127.85-6.1L127.85-6.1Q129.15-6.1 130.72-8.43 132.3-10.75 133.45-15.1L133.45-15.1Q133.55-15.55 133.65-15.98 133.74-16.4 133.8-16.8L133.8-16.8Q132.99-18.65 132.12-19.43 131.25-20.2 130.4-20.2L130.4-20.2Q129.15-20.2 128.07-18.88 127-17.55 126.32-15.55 125.65-13.55 125.65-11.55L125.65-11.55Q125.65-8.8 126.27-7.45 126.9-6.1 127.85-6.1ZM153.09 0.2L153.09 0.2Q151.49 0.2 150.07-0.53 148.64-1.25 147.77-2.8 146.89-4.35 146.89-6.75L146.89-6.75Q146.89-8.05 147.14-10.15 147.39-12.25 147.82-14.75 148.24-17.25 148.69-19.75L148.69-19.75Q147.69-19.7 146.77-19.55 145.84-19.4 144.94-19.2L144.94-19.2 144.84-19.55Q145.84-20.75 146.94-21.6 148.04-22.45 149.24-23L149.24-23Q149.89-26.3 150.34-28.73 150.79-31.15 150.79-31.6L150.79-31.6Q150.79-32.45 152.12-33 153.44-33.55 155.09-33.55L155.09-33.55Q156.54-33.55 157.82-33 159.09-32.45 159.54-31.15L159.54-31.15Q159.24-30.85 158.69-28.93 158.14-27 157.54-24.25L157.54-24.25Q158.49-24.2 159.49-24.15 160.49-24.1 161.54-24L161.54-24Q161.64-23.7 161.69-23.35 161.74-23 161.74-22.6L161.74-22.6Q161.74-21.85 161.52-20.98 161.29-20.1 160.99-19.4L160.99-19.4Q159.79-19.5 158.74-19.63 157.69-19.75 156.69-19.8L156.69-19.8Q156.29-17.65 155.97-15.5 155.64-13.35 155.47-11.6 155.29-9.85 155.29-8.85L155.29-8.85Q155.29-6.75 156.07-6.05 156.84-5.35 157.94-5.35L157.94-5.35Q158.94-5.35 159.74-5.75 160.54-6.15 160.89-6.7L160.89-6.7 161.39-6.55Q161.09-4.5 159.79-2.98 158.49-1.45 156.69-0.63 154.89 0.2 153.09 0.2ZM168.64 0.2L168.64 0.2Q166.49 0.2 165.19-1.25 163.89-2.7 163.89-5.2L163.89-5.2Q163.89-6.55 164.24-8.72 164.59-10.9 165.12-13.53 165.64-16.15 166.14-18.88 166.64-21.6 166.99-24.15 167.34-26.7 167.34-28.65L167.34-28.65Q167.34-31.1 166.69-32.2L166.69-32.2 166.69-32.5Q167.79-33.75 169.09-34.35 170.39-34.95 171.64-34.95L171.64-34.95Q173.54-34.95 174.89-33.6 176.24-32.25 176.24-29.55L176.24-29.55Q176.24-28.1 175.84-26 175.44-23.9 174.89-21.6 174.34-19.3 173.79-17.3L173.79-17.3Q174.74-19.15 176.32-20.98 177.89-22.8 179.92-24 181.94-25.2 184.14-25.2L184.14-25.2Q186.64-25.2 187.52-23.65 188.39-22.1 188.39-19.8L188.39-19.8Q188.39-17.7 187.94-15.33 187.49-12.95 187.04-10.78 186.59-8.6 186.59-7.15L186.59-7.15Q186.59-5.05 187.84-5.05L187.84-5.05Q188.39-5.05 188.82-5.38 189.24-5.7 189.44-6.1L189.44-6.1 189.79-5.85Q189.79-3.9 188.84-2.55 187.89-1.2 186.42-0.5 184.94 0.2 183.39 0.2L183.39 0.2Q181.34 0.2 179.69-1.18 178.04-2.55 178.04-5.65L178.04-5.65Q178.04-7.4 178.52-9.45 178.99-11.5 179.44-13.43 179.89-15.35 179.89-16.65L179.89-16.65Q179.89-18.35 178.69-18.35L178.69-18.35Q177.59-18.35 176.29-17.25 174.99-16.15 174.02-14.5 173.04-12.85 172.74-11.25L172.74-11.25Q172.64-10.85 172.64-10.3L172.64-10.3Q172.64-9.05 173.02-7.9 173.39-6.75 173.39-5.2L173.39-5.2Q173.39-2.9 172.19-1.35 170.99 0.2 168.64 0.2ZM201.84-26.75L201.84-26.75Q199.84-26.75 198.56-27.98 197.29-29.2 197.29-31.05L197.29-31.05Q197.29-33.05 198.79-34.5 200.29-35.95 202.44-35.95L202.44-35.95Q204.44-35.95 205.71-34.7 206.99-33.45 206.99-31.6L206.99-31.6Q206.99-29.6 205.49-28.18 203.99-26.75 201.84-26.75ZM198.34 0.2L198.34 0.2Q196.39 0.2 194.84-1.18 193.29-2.55 193.29-5.6L193.29-5.6Q193.29-7.35 193.76-8.88 194.24-10.4 194.86-11.85 195.49-13.3 195.96-14.68 196.44-16.05 196.44-17.4L196.44-17.4Q196.44-18.6 196.04-19.13 195.64-19.65 195.09-19.65L195.09-19.65Q194.24-19.65 193.44-18.55L193.44-18.55 193.09-18.75Q193.29-20.75 194.36-22.18 195.44-23.6 197.01-24.4 198.59-25.2 200.14-25.2L200.14-25.2Q202.04-25.2 203.44-23.98 204.84-22.75 204.84-20L204.84-20Q204.84-18.35 204.36-16.53 203.89-14.7 203.26-12.9 202.64-11.1 202.16-9.55 201.69-8 201.69-6.9L201.69-6.9Q201.69-5.95 202.06-5.55 202.44-5.15 202.89-5.15L202.89-5.15Q203.34-5.15 203.76-5.43 204.19-5.7 204.39-6.05L204.39-6.05 204.74-5.95Q204.74-4.1 203.76-2.73 202.79-1.35 201.34-0.58 199.89 0.2 198.34 0.2Z" fill="#cb3e1c" data-fill-palette-color="secondary"></path></g></svg></g></svg></g><g transform="matrix(1,0,0,1,0,108.13494453329672)"><svg viewBox="0 0 304.35264 24.825543539296344" height="24.825543539296344" width="304.35264"><g transform="matrix(1,0,0,1,0,0)"><svg width="304.35264" viewBox="1.42 -39.5 557.86 45.51" height="24.825543539296344" data-palette-color="#cb3e1c"><path d="M25.15-22.46L19.51 0 10.64 0 1.42-35.16 11.3-35.16 17.14-10.21 22.31-35.16 31.2-35.16 36.87-9.57 43.24-35.16 49.22-35.16 38.99 0 30.1 0 25.15-22.46ZM58.2-13.38L58.2-13.38Q59.71-13.04 61.23-12.84 62.74-12.65 64.28-12.65L64.28-12.65Q65.89-12.65 67.27-12.95 68.65-13.26 69.66-13.98 70.68-14.7 71.26-15.89 71.85-17.09 71.85-18.87L71.85-18.87Q71.85-20.31 71.46-21.51 71.07-22.71 70.3-23.56 69.53-24.41 68.41-24.89 67.28-25.37 65.79-25.37L65.79-25.37Q64.4-25.37 63.29-24.85 62.18-24.34 61.34-23.47 60.5-22.61 59.9-21.46 59.3-20.31 58.91-19.07 58.52-17.82 58.35-16.55 58.18-15.28 58.18-14.16L58.18-14.16Q58.18-13.96 58.18-13.77 58.18-13.57 58.2-13.38ZM78.54-18.95L78.54-18.95Q78.54-17.21 77.98-15.86 77.41-14.5 76.45-13.48 75.49-12.45 74.22-11.74 72.95-11.04 71.51-10.58 70.07-10.13 68.54-9.94 67.01-9.74 65.57-9.74L65.57-9.74Q63.74-9.74 61.96-10 60.18-10.25 58.44-10.82L58.44-10.82Q58.71-9.2 59.3-7.75 59.89-6.3 60.86-5.21 61.84-4.13 63.27-3.49 64.69-2.86 66.65-2.86L66.65-2.86Q67.94-2.86 69.11-3.25 70.29-3.64 71.26-4.35 72.24-5.05 72.98-6.03 73.73-7.01 74.19-8.2L74.19-8.2 77.76-6.88Q76.95-4.96 75.55-3.55 74.14-2.15 72.37-1.23 70.6-0.32 68.61 0.12 66.62 0.56 64.67 0.56L64.67 0.56Q61.45 0.56 58.71-0.52 55.98-1.61 54-3.56 52.02-5.52 50.9-8.23 49.78-10.94 49.78-14.16L49.78-14.16Q49.78-17.38 50.9-20.09 52.02-22.8 54-24.76 55.98-26.71 58.71-27.8 61.45-28.88 64.67-28.88L64.67-28.88Q66.23-28.88 67.87-28.66 69.5-28.44 71.04-27.97 72.58-27.49 73.95-26.73 75.31-25.98 76.33-24.87 77.34-23.75 77.94-22.29 78.54-20.83 78.54-18.95ZM108.07-13.13L108.07 0 98.38 0 98.38-35.16 117.38-35.16Q119.84-35.16 122.1-34.5 124.36-33.84 126.09-32.51 127.82-31.18 128.86-29.16 129.9-27.15 129.9-24.44L129.9-24.44Q129.9-22.73 129.41-21.23 128.92-19.73 128.06-18.48 127.19-17.24 126.02-16.24 124.85-15.23 123.45-14.55 122.06-13.87 120.51-13.5 118.96-13.13 117.38-13.13L117.38-13.13 108.07-13.13ZM120.09-24.44L120.09-24.44Q120.09-27.83 118.36-29.77 116.64-31.71 113.18-31.71L113.18-31.71 108.07-31.71 108.07-16.46 113.18-16.46Q115.03-16.46 116.34-17.05 117.64-17.65 118.47-18.73 119.3-19.8 119.69-21.25 120.09-22.71 120.09-24.44ZM158.1-25.71L158.1-25.71 153.46-18.02Q153.16-18.99 152.7-20.21 152.24-21.44 151.55-22.5 150.87-23.56 149.92-24.28 148.96-25 147.72-25L147.72-25Q146.57-25 145.73-24.41 144.89-23.83 144.3-22.89 143.72-21.95 143.34-20.76 142.96-19.58 142.75-18.37 142.54-17.16 142.47-16.05 142.4-14.94 142.4-14.14L142.4-14.14 142.4 0 134.12 0 134.12-28.2 137.29-28.2 140.64-21.63Q141.32-23.22 142.2-24.55 143.08-25.88 144.23-26.84 145.38-27.81 146.83-28.34 148.28-28.88 150.11-28.88L150.11-28.88Q151.06-28.88 152.24-28.72 153.41-28.56 154.53-28.19 155.65-27.81 156.61-27.2 157.56-26.59 158.1-25.71ZM170.2-35.01L170.2-35.01Q170.2-34.08 169.85-33.25 169.49-32.42 168.88-31.81 168.27-31.2 167.44-30.85 166.61-30.49 165.69-30.49L165.69-30.49Q164.76-30.49 163.94-30.85 163.12-31.2 162.51-31.81 161.9-32.42 161.55-33.25 161.19-34.08 161.19-35.01L161.19-35.01Q161.19-35.94 161.55-36.76 161.9-37.57 162.51-38.18 163.12-38.79 163.94-39.15 164.76-39.5 165.69-39.5L165.69-39.5Q166.61-39.5 167.44-39.15 168.27-38.79 168.88-38.18 169.49-37.57 169.85-36.76 170.2-35.94 170.2-35.01ZM169.84-28.17L169.84 0 161.56 0 161.56-28.17 169.84-28.17ZM206.53-14.16L206.53-14.16Q206.53-11.96 205.94-10.03 205.36-8.11 204.32-6.47 203.28-4.83 201.82-3.53 200.35-2.22 198.61-1.32 196.86-0.42 194.87 0.07 192.88 0.56 190.78 0.56L190.78 0.56Q188.68 0.56 186.7 0.07 184.73-0.42 182.98-1.32 181.24-2.22 179.77-3.53 178.31-4.83 177.27-6.47 176.23-8.11 175.64-10.05 175.06-11.99 175.06-14.16L175.06-14.16Q175.06-16.33 175.64-18.27 176.23-20.21 177.27-21.85 178.31-23.49 179.77-24.79 181.24-26.1 182.98-27 184.73-27.91 186.7-28.39 188.68-28.88 190.78-28.88L190.78-28.88Q192.88-28.88 194.87-28.39 196.86-27.91 198.61-27 200.35-26.1 201.82-24.79 203.28-23.49 204.32-21.85 205.36-20.21 205.94-18.27 206.53-16.33 206.53-14.16ZM198.13-14.16L198.13-14.16Q198.13-15.33 198-16.64 197.86-17.94 197.54-19.2 197.23-20.46 196.68-21.62 196.13-22.78 195.32-23.65 194.52-24.51 193.39-25.04 192.27-25.56 190.78-25.56L190.78-25.56Q189.36-25.56 188.27-25.02 187.17-24.49 186.35-23.6 185.53-22.71 184.98-21.53 184.43-20.36 184.09-19.1 183.75-17.85 183.6-16.56 183.46-15.28 183.46-14.16L183.46-14.16Q183.46-13.04 183.6-11.76 183.75-10.47 184.09-9.2 184.43-7.93 184.98-6.77 185.53-5.62 186.35-4.72 187.17-3.83 188.27-3.3 189.36-2.76 190.78-2.76L190.78-2.76Q192.25-2.76 193.37-3.28 194.49-3.81 195.31-4.69 196.13-5.57 196.66-6.71 197.2-7.86 197.53-9.13 197.86-10.4 198-11.69 198.13-12.99 198.13-14.16ZM235.7-25.71L235.7-25.71 231.06-18.02Q230.77-18.99 230.3-20.21 229.84-21.44 229.16-22.5 228.47-23.56 227.52-24.28 226.57-25 225.32-25L225.32-25Q224.18-25 223.33-24.41 222.49-23.83 221.91-22.89 221.32-21.95 220.94-20.76 220.56-19.58 220.36-18.37 220.15-17.16 220.08-16.05 220-14.94 220-14.14L220-14.14 220 0 211.73 0 211.73-28.2 214.9-28.2 218.24-21.63Q218.93-23.22 219.81-24.55 220.69-25.88 221.83-26.84 222.98-27.81 224.43-28.34 225.89-28.88 227.72-28.88L227.72-28.88Q228.67-28.88 229.84-28.72 231.01-28.56 232.14-28.19 233.26-27.81 234.21-27.2 235.16-26.59 235.7-25.71ZM247.81-35.01L247.81-35.01Q247.81-34.08 247.45-33.25 247.1-32.42 246.49-31.81 245.88-31.2 245.05-30.85 244.22-30.49 243.29-30.49L243.29-30.49Q242.36-30.49 241.54-30.85 240.73-31.2 240.12-31.81 239.51-32.42 239.15-33.25 238.8-34.08 238.8-35.01L238.8-35.01Q238.8-35.94 239.15-36.76 239.51-37.57 240.12-38.18 240.73-38.79 241.54-39.15 242.36-39.5 243.29-39.5L243.29-39.5Q244.22-39.5 245.05-39.15 245.88-38.79 246.49-38.18 247.1-37.57 247.45-36.76 247.81-35.94 247.81-35.01ZM247.44-28.17L247.44 0 239.16 0 239.16-28.17 247.44-28.17ZM264.97-24.93L264.97 0 256.69 0 256.69-24.93 251.56-24.93 251.56-28.2 256.69-28.2 256.69-38.57 264.97-38.57 264.97-28.2 273.51-28.2 273.51-24.93 264.97-24.93ZM286.01-35.01L286.01-35.01Q286.01-34.08 285.66-33.25 285.3-32.42 284.69-31.81 284.08-31.2 283.25-30.85 282.42-30.49 281.49-30.49L281.49-30.49Q280.57-30.49 279.75-30.85 278.93-31.2 278.32-31.81 277.71-32.42 277.36-33.25 277-34.08 277-35.01L277-35.01Q277-35.94 277.36-36.76 277.71-37.57 278.32-38.18 278.93-38.79 279.75-39.15 280.57-39.5 281.49-39.5L281.49-39.5Q282.42-39.5 283.25-39.15 284.08-38.79 284.69-38.18 285.3-37.57 285.66-36.76 286.01-35.94 286.01-35.01ZM285.64-28.17L285.64 0 277.37 0 277.37-28.17 285.64-28.17ZM314.89-3.27L314.89 0 291.01 0 291.01-3.27 291.01-3.27 305.78-24.93 291.01-24.93 291.01-28.2 314.89-28.2 314.89-24.93 300.12-3.27 314.89-3.27ZM326.09-13.38L326.09-13.38Q327.61-13.04 329.12-12.84 330.63-12.65 332.17-12.65L332.17-12.65Q333.78-12.65 335.16-12.95 336.54-13.26 337.56-13.98 338.57-14.7 339.15-15.89 339.74-17.09 339.74-18.87L339.74-18.87Q339.74-20.31 339.35-21.51 338.96-22.71 338.19-23.56 337.42-24.41 336.3-24.89 335.18-25.37 333.69-25.37L333.69-25.37Q332.29-25.37 331.18-24.85 330.07-24.34 329.23-23.47 328.39-22.61 327.79-21.46 327.19-20.31 326.8-19.07 326.41-17.82 326.24-16.55 326.07-15.28 326.07-14.16L326.07-14.16Q326.07-13.96 326.07-13.77 326.07-13.57 326.09-13.38ZM346.43-18.95L346.43-18.95Q346.43-17.21 345.87-15.86 345.31-14.5 344.34-13.48 343.38-12.45 342.11-11.74 340.84-11.04 339.4-10.58 337.96-10.13 336.43-9.94 334.91-9.74 333.47-9.74L333.47-9.74Q331.64-9.74 329.85-10 328.07-10.25 326.34-10.82L326.34-10.82Q326.61-9.2 327.19-7.75 327.78-6.3 328.75-5.21 329.73-4.13 331.16-3.49 332.59-2.86 334.54-2.86L334.54-2.86Q335.83-2.86 337.01-3.25 338.18-3.64 339.15-4.35 340.13-5.05 340.88-6.03 341.62-7.01 342.08-8.2L342.08-8.2 345.65-6.88Q344.84-4.96 343.44-3.55 342.04-2.15 340.27-1.23 338.5-0.32 336.51 0.12 334.52 0.56 332.56 0.56L332.56 0.56Q329.34 0.56 326.61-0.52 323.87-1.61 321.89-3.56 319.92-5.52 318.79-8.23 317.67-10.94 317.67-14.16L317.67-14.16Q317.67-17.38 318.79-20.09 319.92-22.8 321.89-24.76 323.87-26.71 326.61-27.8 329.34-28.88 332.56-28.88L332.56-28.88Q334.13-28.88 335.76-28.66 337.4-28.44 338.93-27.97 340.47-27.49 341.84-26.73 343.21-25.98 344.22-24.87 345.23-23.75 345.83-22.29 346.43-20.83 346.43-18.95ZM398.21-26.44L398.21-26.44 394.03-24.68Q393.54-26.27 392.73-27.59 391.91-28.91 390.77-29.85 389.64-30.79 388.2-31.31 386.76-31.84 385.05-31.84L385.05-31.84Q383.22-31.84 381.69-31.23 380.17-30.62 378.96-29.58 377.75-28.54 376.84-27.15 375.94-25.76 375.34-24.18 374.75-22.61 374.44-20.92 374.13-19.24 374.13-17.63L374.13-17.63Q374.13-15.06 374.73-12.52 375.33-9.99 376.64-7.96 377.94-5.93 380.02-4.68 382.09-3.42 385.05-3.42L385.05-3.42Q386.66-3.42 387.56-4.14 388.47-4.86 388.47-6.67L388.47-6.67 388.47-17.46 398.16-17.46 398.16 0 395.35 0 393.64-2.76Q391.3-0.98 388.48-0.13 385.66 0.71 382.73 0.71L382.73 0.71Q380.14 0.71 377.76 0.07 375.38-0.56 373.33-1.73 371.28-2.91 369.61-4.57 367.93-6.23 366.75-8.25 365.57-10.28 364.92-12.66 364.27-15.04 364.27-17.63L364.27-17.63Q364.27-20.21 364.92-22.6 365.57-24.98 366.75-27.01 367.93-29.05 369.61-30.71 371.28-32.37 373.33-33.54 375.38-34.72 377.76-35.35 380.14-35.99 382.73-35.99L382.73-35.99Q385.22-35.99 387.6-35.4 389.98-34.81 392.03-33.63 394.08-32.45 395.68-30.65 397.28-28.86 398.21-26.44ZM428.19-25.71L428.19-25.71 423.55-18.02Q423.25-18.99 422.79-20.21 422.33-21.44 421.64-22.5 420.96-23.56 420.01-24.28 419.05-25 417.81-25L417.81-25Q416.66-25 415.82-24.41 414.98-23.83 414.39-22.89 413.81-21.95 413.43-20.76 413.05-19.58 412.84-18.37 412.63-17.16 412.56-16.05 412.49-14.94 412.49-14.14L412.49-14.14 412.49 0 404.21 0 404.21-28.2 407.38-28.2 410.73-21.63Q411.41-23.22 412.29-24.55 413.17-25.88 414.32-26.84 415.47-27.81 416.92-28.34 418.37-28.88 420.2-28.88L420.2-28.88Q421.15-28.88 422.33-28.72 423.5-28.56 424.62-28.19 425.74-27.81 426.7-27.2 427.65-26.59 428.19-25.71ZM460.68-14.16L460.68-14.16Q460.68-11.96 460.09-10.03 459.51-8.11 458.47-6.47 457.43-4.83 455.97-3.53 454.5-2.22 452.76-1.32 451.01-0.42 449.02 0.07 447.03 0.56 444.93 0.56L444.93 0.56Q442.83 0.56 440.85 0.07 438.88-0.42 437.13-1.32 435.38-2.22 433.92-3.53 432.46-4.83 431.42-6.47 430.38-8.11 429.79-10.05 429.21-11.99 429.21-14.16L429.21-14.16Q429.21-16.33 429.79-18.27 430.38-20.21 431.42-21.85 432.46-23.49 433.92-24.79 435.38-26.1 437.13-27 438.88-27.91 440.85-28.39 442.83-28.88 444.93-28.88L444.93-28.88Q447.03-28.88 449.02-28.39 451.01-27.91 452.76-27 454.5-26.1 455.97-24.79 457.43-23.49 458.47-21.85 459.51-20.21 460.09-18.27 460.68-16.33 460.68-14.16ZM452.28-14.16L452.28-14.16Q452.28-15.33 452.15-16.64 452.01-17.94 451.69-19.2 451.38-20.46 450.83-21.62 450.28-22.78 449.47-23.65 448.67-24.51 447.54-25.04 446.42-25.56 444.93-25.56L444.93-25.56Q443.51-25.56 442.42-25.02 441.32-24.49 440.5-23.6 439.68-22.71 439.13-21.53 438.58-20.36 438.24-19.1 437.9-17.85 437.75-16.56 437.61-15.28 437.61-14.16L437.61-14.16Q437.61-13.04 437.75-11.76 437.9-10.47 438.24-9.2 438.58-7.93 439.13-6.77 439.68-5.62 440.5-4.72 441.32-3.83 442.42-3.3 443.51-2.76 444.93-2.76L444.93-2.76Q446.4-2.76 447.52-3.28 448.64-3.81 449.46-4.69 450.28-5.57 450.81-6.71 451.35-7.86 451.68-9.13 452.01-10.4 452.15-11.69 452.28-12.99 452.28-14.16ZM482.82-17.14L478.16 0 470.73 0 463.02-28.2 471.27-28.2 476.1-8.42 480.13-28.2 487.56-28.2 492.49-7.89 497.25-28.2 502.96-28.2 494.42 0 486.99 0 482.82-17.14ZM518.07-24.93L518.07 0 509.79 0 509.79-24.93 504.67-24.93 504.67-28.2 509.79-28.2 509.79-38.57 518.07-38.57 518.07-28.2 526.62-28.2 526.62-24.93 518.07-24.93ZM559.28-16.16L559.28-16.16Q559.28-13.31 558.58-10.21 557.89-7.1 556.64-4.13 555.4-1.15 553.66 1.48 551.93 4.1 549.85 6.01L549.85 6.01 546.75 4.32Q547.41 3.1 548 1.59 548.59 0.07 549.06-1.62 549.54-3.32 549.92-5.13 550.29-6.93 550.55-8.7 550.81-10.47 550.94-12.15 551.08-13.82 551.08-15.26L551.08-15.26Q551.08-16.21 551-17.3 550.93-18.38 550.7-19.47 550.47-20.56 550.07-21.56 549.68-22.56 549.04-23.32 548.39-24.07 547.47-24.54 546.56-25 545.31-25L545.31-25Q544.09-25 543.14-24.45 542.19-23.9 541.46-23.01 540.72-22.12 540.2-20.97 539.67-19.82 539.34-18.62 539.01-17.41 538.87-16.24 538.72-15.06 538.72-14.14L538.72-14.14 538.72 0 530.45 0 530.45-38.57 538.7-38.57 538.7-24.05Q540.28-26.37 542.59-27.62 544.9-28.88 547.71-28.88L547.71-28.88Q550.64-28.88 552.81-27.93 554.98-26.98 556.42-25.28 557.86-23.58 558.57-21.25 559.28-18.92 559.28-16.16Z" opacity="1" transform="matrix(1,0,0,1,0,0)" fill="#cb3e1c" class="slogan-text-1" data-fill-palette-color="secondary" id="text-1"></path></svg></g></svg></g></svg></g></svg></g><g><svg viewBox="0 0 245.65351679999998 237.95736151648012" height="237.95736151648012" width="245.65351679999998"><g><svg xmlns="http://www.w3.org/2000/svg" xmlns:xlink="http://www.w3.org/1999/xlink" version="1.1" x="0" y="0" viewBox="5.808 7.011 88.38399999999999 85.61499022786462" enable-background="new 0 0 100 100" xml:space="preserve" height="237.95736151648012" width="245.65351679999998" class="icon-icon-0" data-fill-palette-color="accent" id="icon-0"><g fill="#5191da" data-fill-palette-color="accent"><polygon points="81.543,58.15 77.055,54.122 83.102,53.352 85.624,47.897 88.146,53.352 94.192,54.122 89.704,58.15 90.919,64.194    85.624,61.116 80.328,64.194  " fill="#5191da" data-fill-palette-color="accent"></polygon><polygon points="81.543,37.708 77.055,33.679 83.102,32.91 85.624,27.454 88.146,32.91 94.192,33.679 89.704,37.708 90.919,43.751    85.624,40.673 80.328,43.751  " fill="#5191da" data-fill-palette-color="accent"></polygon><polygon points="81.543,17.265 77.055,13.236 83.102,12.467 85.624,7.011 88.146,12.467 94.192,13.236 89.704,17.265    90.919,23.308 85.624,20.23 80.328,23.308  " fill="#5191da" data-fill-palette-color="accent"></polygon><path d="M89.09 81.358L67.362 56.969A32.9 32.9 0 0 1 54.748 69.46L79.202 91.246A5.45 5.45 0 0 0 86.68 91.03L88.875 88.835A5.45 5.45 0 0 0 89.09 81.358" fill="#5191da" data-fill-palette-color="accent"></path><path d="M32.941 27.164C32.941 21.325 34.531 20.311 38.293 20.311S43.688 21.355 43.686 27.164C43.684 31.176 41.659 34.949 38.255 34.949 34.928 34.949 32.941 32.126 32.941 27.164" fill="#5191da" data-fill-palette-color="accent"></path><path d="M37.613 71.574C20.076 71.574 5.808 57.306 5.808 39.769S20.076 7.965 37.613 7.965 69.418 22.233 69.418 39.77 55.15 71.574 37.613 71.574M37.613 16.334C24.691 16.334 14.178 26.847 14.178 39.769S24.691 63.204 37.613 63.204 61.048 52.691 61.048 39.769 50.535 16.334 37.613 16.334" fill="#5191da" data-fill-palette-color="accent"></path><path d="M48.559 36.946L44.619 36.896 40.322 44.773 39.753 40.789 40.418 39.459C41.14 38.015 40.147 36.896 39.469 36.896H37.117C36.44 36.896 35.446 38.015 36.168 39.459L36.833 40.789 36.264 44.773 31.967 36.896 27.718 36.922C25.29 36.919 23.429 38.371 23.209 40.789V54.297C26.911 57.967 32 60.24 37.612 60.24 43.935 60.24 49.595 57.356 53.353 52.837L53.376 40.788C53.084 38.442 50.923 36.948 48.559 36.946" fill="#5191da" data-fill-palette-color="accent"></path></g></svg></g></svg></g></svg></g><defs></defs></svg><rect width="395.52" height="142.01004637751942" fill="none" stroke="none" visibility="hidden"></rect></g></svg></g></svg>